<?xml version="1.0" ?><svg id="Layer_1" style="enable-background:new 0 0 256 256;" version="1.1" viewBox="0 0 256 256" xml:space="preserve" xmlns="http://www.w3.org/2000/svg" xmlns:xlink="http://www.w3.org/1999/xlink"><g><path d="M26.5,65c-3.3-8.6-5.9-17.6-7.8-26.7c-0.7-3.5-1.4-6.9-2-10.4c-0.4-2.2-0.7-4.5-1.1-6.8c-0.2-1.1-0.3-2.3-0.5-3.4L15.1,17   c0-0.2-0.1-0.5-0.1-0.7c0.5,0,1,0.1,1.5,0.2l0.9,0.1c2.3,0.3,4.5,0.6,6.8,1c4.5,0.7,8.9,1.5,13.1,2.4c8.8,1.9,17.5,4.4,25.8,7.5   c2.5,0.9,5.2-0.3,6.2-2.8c0.9-2.5-0.3-5.2-2.8-6.2c-8.7-3.3-17.8-5.9-27.1-7.9c-4.3-0.9-8.9-1.8-13.6-2.5c-2.3-0.4-4.7-0.7-7-1   L17.8,7c-2.2-0.3-5.1-0.7-8.2,0.7c-2.5,1.2-4.1,3.8-4.3,7c-0.1,1.4,0.1,2.7,0.2,3.7l0.1,0.6c0.2,1.2,0.3,2.4,0.5,3.6   c0.3,2.3,0.7,4.7,1.1,7c0.6,3.6,1.3,7.2,2.1,10.8c2,9.6,4.8,19,8.2,28.2c0.7,1.9,2.5,3.1,4.5,3.1c0.6,0,1.1-0.1,1.7-0.3   C26.2,70.3,27.4,67.5,26.5,65z"/><path d="M249.3,227.2c-2.6-2.6-3.2-7.3-3.9-12c-1.4-9.7-5.5-27.6-17.9-38.7c-5.4-4.8-11.7-7.7-18.7-8.6   c-10.6-1.4-21.7,2.4-30.3,10.4c-8.6,8-13.2,18.7-12.6,29.5c1.1,20.6,20.6,32,37,35.6c4.6,1,9.3,2,12,4.6c0.9,0.9,2.2,1.4,3.5,1.4   c0.7,0,1.3-0.1,2-0.4c3.2-1.5,3-5.1,2.9-6.6c-0.4-5.8-3.9-9.5-6.6-12.4c-1-1.1-2-2.2-2.8-3.2c-0.9-1.3-1.3-2.7-1-3.8   c0.3-1,1.1-1.8,2.5-2.5c3-1.4,7.2-1.1,9.8,0.8c1.6,1.1,2.9,2.9,4.4,4.7c2.2,2.8,4.7,5.9,8.4,7.8c1.8,0.9,3.6,1.5,5.9,1.8   c1.5,0.1,4.9,0.3,6.4-2.9C251.1,230.9,250.7,228.7,249.3,227.2z M230.8,213.5c-5.4-3.9-13.4-4.6-19.5-1.7c-3.9,1.9-6.7,5-7.7,8.7   c-1,3.8-0.1,8.1,2.4,11.7c0.6,0.9,1.3,1.7,2,2.5c-1.1-0.3-2.1-0.5-3.1-0.7c-13.1-2.8-28.6-11.5-29.5-26.7c-0.4-7.9,3.1-15.9,9.6-22   c5.6-5.2,12.6-8.1,19.4-8.1c1,0,2.1,0.1,3.1,0.2c5.1,0.7,9.7,2.8,13.6,6.3c7.4,6.6,12.8,18.6,14.8,33.1c0.1,0.7,0.2,1.4,0.3,2.2   C234.7,217,233,215,230.8,213.5z"/><path d="M185.1,147.3l-4.8-13c-2-5.3-4.2-10.6-6.6-15.7l40.2-40.2c3.1-3.1,4-7.8,2.1-11.8c-1.9-4-5.9-6.4-10.3-6.1l-68.1,5   c-15.3-16-32.9-29.1-52.5-38.8c-0.5-0.3-1-0.5-1.7-0.8c-1.8-0.9-4-0.5-5.4,0.9L25.4,79.3c-1.4,1.4-1.8,3.6-0.9,5.5l0.7,1.4   c9.8,19.7,22.8,37.4,38.9,52.7l-5,68.2c-0.3,4.4,2.1,8.5,6.1,10.3c1.4,0.7,2.9,1,4.4,1c2.7,0,5.4-1.1,7.4-3.1l40.2-40.3   c5.1,2.4,10.4,4.6,15.6,6.5l13,4.8c1.7,0.6,3.7,0.2,5-1.1l33.1-32.9C185.3,151,185.8,149,185.1,147.3z M146.4,176.2l-10.1-3.8   c-6-2.2-12-4.8-17.8-7.6c-1.8-0.9-4-0.5-5.5,0.9l-42.6,42.7c-0.1,0.1-0.5,0.5-1.1,0.2c-0.6-0.3-0.6-0.7-0.5-0.9l5.1-70.5   c0.1-1.5-0.5-2.9-1.5-3.9C56.8,119,44.1,102.2,34.6,83.6l47.7-47.7c18.7,9.5,35.5,22.2,49.9,37.7c1,1.1,2.4,1.6,3.9,1.5l70.4-5.2   c0,0,0,0,0,0c0.2,0,0.6,0,0.9,0.5c0.3,0.6-0.1,1-0.2,1.1l-42.6,42.6c-1.4,1.4-1.8,3.6-0.9,5.5c2.8,5.8,5.4,11.8,7.7,18l3.7,10.1   L146.4,176.2z"/><path d="M83.7,84.9c-4.4,4.4-6.9,10.3-6.9,16.6c0,6.3,2.4,12.2,6.9,16.6c4.4,4.4,10.3,6.9,16.6,6.9c0,0,0,0,0,0   c6.3,0,12.2-2.4,16.6-6.9c9.1-9.1,9.1-24,0-33.2C107.7,75.8,92.9,75.8,83.7,84.9z M110.1,111.3c-2.6,2.6-6.1,4.1-9.8,4.1   c0,0,0,0,0,0c-3.7,0-7.2-1.4-9.8-4.1c-2.6-2.6-4.1-6.1-4.1-9.8c0-3.7,1.5-7.2,4.1-9.8c2.7-2.7,6.3-4.1,9.8-4.1   c3.6,0,7.1,1.4,9.8,4.1C115.5,97.1,115.5,105.9,110.1,111.3z"/></g></svg>