<?xml version="1.0" ?><svg id="Layer_1" style="enable-background:new 0 0 256 256;" version="1.1" viewBox="0 0 256 256" xml:space="preserve" xmlns="http://www.w3.org/2000/svg" xmlns:xlink="http://www.w3.org/1999/xlink"><g><path d="M130.9,45.7c-30.4,4.3-51.6,32.6-47.3,63c0.4,2.6,0.9,5.2,1.7,8.1c1.5,4.4,3.6,8.6,6.2,12.6c0,5.9-2.7,11.4-7.4,14.9   c-2,1.5-2.9,3.9-2.3,6.6c0.7,2.4,2.7,4.1,5,4.5c9.4,1.4,19.2-0.6,27.2-5.5c5.4,2.9,11.3,5,17.8,6.3c2.2,0.3,4.5,0.4,6.8,0.4   c2.6,0,5.2-0.2,7.8-0.5l0,0c14.7-2.1,27.8-9.8,36.7-21.7c8.9-11.9,12.7-26.6,10.6-41.3C189.5,62.6,161.3,41.4,130.9,45.7z    M145.1,146.2c-4.1,0.6-8.2,0.6-11.7,0.2c-6.1-1.3-11.9-3.5-17.1-6.6l-2.5-1.3l-2.4,1.2l-1.3,0.8c-4.1,2.8-8.9,4.5-13.8,5.1   c3.4-4.8,5.2-10.7,5-16.7c0-0.5,0-1.1-0.1-1.6l-0.1-1.3l-0.7-1.1c-2.4-3.6-4.4-7.4-5.7-11.2c-0.6-2.2-1.1-4.4-1.4-6.5   c-1.7-12.1,1.4-24.1,8.7-33.9c7.3-9.8,18.1-16.1,30.2-17.8c25-3.6,48.2,13.9,51.8,38.9C187.6,119.4,170.1,142.6,145.1,146.2z"/><path d="M141.6,3.3c-0.5,0-1,0-1.6,0c-36.8,0-70.3,21.5-85.5,55.1c-5.5,12.2-8.4,25.2-8.4,38.7c0,0.5,0,3.3,0,7.7   c-0.7,3.2-3.4,6.3-6.3,9.1c-1,1-2.6,2.6-4.4,4.3c-5,4.9-8.2,7.9-9.2,9.1c-1.3,1.7-2.8,3.8-3.6,6.3c-2.3,7.2,3.3,10.6,5.1,11.8   c1.7,1.1,3.6,2.1,6,3.1c1.8,0.8,3.7,1.6,5.4,2.4c0.2,0.1,0.4,0.2,0.7,0.3c2.3,15.3,6.9,45.4,6.9,45.5c0.7,6,2.7,10.6,6.1,13.7   c5.9,5.4,13.8,5.2,20.2,5c1,0,2.1-0.1,3-0.1l10.3,0c0.3,4.3,0.8,11,1.1,16.8l0.8,12.7c0.2,2.4,1.4,4.6,3.2,6c1.4,1.1,3.2,1.7,5,1.7   c0.5,0,1.1-0.1,1.6-0.2l104-20.7c5.6-1.1,9.7-6,9.7-11.8v-18.9c0-22.3,4.8-44.8,14.3-66.9c5.3-12.3,7.9-25.4,7.6-38.9   C232.9,44.6,192.4,4.1,141.6,3.3z M217.1,130.4c-10,23.3-15.1,47.1-15.1,70.8V220c0,1-0.7,1.9-1.7,2.1L98.1,242.4l-0.7-10.8   c-1.3-20.5-1.5-21.5-1.7-22.3l-0.9-3.8H90l-13.9,0c-1.1,0-2.2,0-3.3,0.1c-5.1,0.1-10.4,0.3-13.3-2.4c-1.6-1.4-2.5-3.9-3-7.7   c-0.2-1.1-7.3-47.9-7.3-47.9l-0.2-1.4l-0.9-1.1l-1-1.1c-1.2-1-2.5-1.5-3.4-1.8l-0.7-0.3c-1.7-0.7-3.4-1.5-5.1-2.3   c-2-0.9-3.5-1.7-4.9-2.6c-0.4-0.2-0.6-0.4-0.8-0.5c0.4-1,1.2-2.1,1.8-2.9c0.7-0.9,5.5-5.5,8.4-8.2c1.8-1.8,3.5-3.4,4.5-4.4   c4-3.9,8.2-8.8,9.2-15l0.1-0.4l0-0.4c0-4.7,0-7.6,0-8.1c0-12.1,2.5-23.7,7.5-34.6c13.8-30.5,44.3-49.8,77.9-49.3   c45.4,0.7,81.7,36.9,82.6,82.3C224.2,107.6,221.9,119.3,217.1,130.4z"/></g></svg>